# xmcd
#
# Track frame offsets: 
#        150
#        12077
#        29348
#        47328
#        64461
#        82057
#        97746
#        120074
#        139420
#        152454
#        169716
#        186656
#        203859
#        222952
#        240634
#        256450
#        272184
#
# Disc length: 3834 seconds
#
# Revision: 4
# Processed by: cddbd v1.5.2PL0 Copyright (c) Steve Scherf et al.
# Submitted via: ExactAudioCopyFreeDBPlugin 1.0
#
DISCID=ea0ef811
DTITLE=Various Artist - 大城小調  CD1
DYEAR=0
DGENRE=Country
TTITLE0=小城故事 - 鄧麗君
TTITLE1=倦 - 葉德嫻
TTITLE2=不裝飾妳的夢 - 蔡國權
TTITLE3=昐三年 - 陳百強
TTITLE4=甜言蜜語 - 葉倩文
TTITLE5=相識也是緣份 - 張德蘭
TTITLE6=恨綿綿 - 關正傑
TTITLE7=願你待我真的好 - 葉麗儀 葉振棠
TTITLE8=何日君再來 - 鄧麗君
TTITLE9=海上花 - 甄妮
TTITLE10=詠梅 - 關正傑
TTITLE11=夜來香 - 林子祥
TTITLE12=今宵多珍重 - 黃露儀
TTITLE13=誰可改變 - 譚詠麟
TTITLE14=情竇初開 - 蔣麗萍
TTITLE15=願死也為情 - 葉倩文
TTITLE16=風塵tear - 張德蘭
EXTD=
EXTT0=
EXTT1=
EXTT2=
EXTT3=
EXTT4=
EXTT5=
EXTT6=
EXTT7=
EXTT8=
EXTT9=
EXTT10=
EXTT11=
EXTT12=
EXTT13=
EXTT14=
EXTT15=
EXTT16=
PLAYORDER=
